# xmcd
#
# Track frame offsets:
#	150
#	15610
#	35707
#	53432
#	67870
#	79195
#	96810
#	112357
#	130387
#	153235
#	169875
#	185335
#	205430
#	223157
#	237597
#	248922
#	266540
#	282085
#	300117
#
# Disc length: 4306 seconds
#
# Revision: 0
# Processed by: cddbd v1.5.2PL0 Copyright (c) Steve Scherf et al.
# Submitted via: audiograbber 1.83.01
#
DISCID=0d10d013
DTITLE=Various Artist - CHM0206
DYEAR=2002
DGENRE=Country
TTITLE0=Steve Azar - I Don't Have To Be Me (Til Monday) vocal
TTITLE1=Willie Nelson and Lee Ann Womack - Mendocino County Line vocal
TTITLE2=Sara Evans - I Keep Looking vocal
TTITLE3=SheDaisy - Get Over Yourself vocal
TTITLE4=Jamie O'Neal - Frantic vocal
TTITLE5=Trace Adkins - Help Me Understand vocal
TTITLE6=Mark Chestnutt -  She Was vocal
TTITLE7=Gary Allan - The One vocal
TTITLE8=Nickel Creek - The Lighthouse's Tale vocal
TTITLE9=Reba McEntire - Sweet Music Man vocal only
TTITLE10=Steve Azar - I Don't Have To Be Me (Til Monday)
TTITLE11=Wilie Nelson and Lee Ann Womack - Mendocino County Line
TTITLE12=Sara Evans - I Keep Looking
TTITLE13=SheDaisy -  Get Over Yourself
TTITLE14=Jamie O'Neal - Frantic
TTITLE15=Trace Adkins - Help Me Understand
TTITLE16=Mark Chestnutt - She Was
TTITLE17=Gary Allan - The One
TTITLE18=Nickel Creek - The Lighthouse's Tale
EXTD=
EXTT0=
EXTT1=
EXTT2=
EXTT3=
EXTT4=
EXTT5=
EXTT6=
EXTT7=
EXTT8=
EXTT9=
EXTT10=
EXTT11=
EXTT12=
EXTT13=
EXTT14=
EXTT15=
EXTT16=
EXTT17=
EXTT18=
PLAYORDER=
